<svg aria-hidden="true" style="position: absolute; width: 0; height: 0; overflow: hidden;" version="1.1" xmlns="http://www.w3.org/2000/svg" xmlns:xlink="http://www.w3.org/1999/xlink">
<defs>
<symbol id="icon-email" viewBox="0 0 32 32">
<path d="M28.765 4h-25.532c-1.786 0-3.233 1.448-3.233 3.235v17.531c0 1.787 1.447 3.235 3.233 3.235h25.532c1.786 0 3.235-1.448 3.235-3.235v-17.531c0-1.787-1.449-3.235-3.235-3.235zM17.577 15.431c-0.897 0.815-2.257 0.815-3.149 0.005l-9.766-8.769h22.675l-9.76 8.764zM2.667 8.459l6.567 5.896-6.567 8.755v-14.652zM11.225 16.144l1.416 1.271c1.903 1.729 4.815 1.729 6.723-0.005l1.41-1.266 6.892 9.19h-23.333l6.892-9.19zM22.766 14.355l6.567-5.897v14.653l-6.567-8.757z"></path>
</symbol>
<symbol id="icon-email2" viewBox="0 0 32 32">
<path d="M16.86 17.173c-0.256 0.188-0.558 0.282-0.86 0.282s-0.604-0.094-0.86-0.282l-15.14-11.102-0 20.596c0 0.803 0.651 1.455 1.455 1.455l29.091-0c0.803 0 1.455-0.651 1.455-1.454v-20.596l-15.14 11.102z"></path>
<path d="M16 14.196l14.069-10.317-28.138-0z"></path>
</symbol>
<symbol id="icon-github-2" viewBox="0 0 32 32">
<path d="M0 0v32h32v-32h-32zM19.379 26.12c-0.541 0.104-0.712-0.228-0.712-0.512v-2.927c0-0.996-0.349-1.644-0.733-1.975 2.376-0.264 4.872-1.167 4.872-5.263 0-1.165-0.415-2.117-1.099-2.863 0.111-0.269 0.476-1.355-0.105-2.823 0 0-0.895-0.287-2.931 1.093-0.852-0.24-1.764-0.356-2.671-0.361-0.907 0.004-1.819 0.121-2.671 0.359-2.037-1.38-2.933-1.093-2.933-1.093-0.579 1.469-0.213 2.553-0.103 2.824-0.683 0.747-1.099 1.697-1.099 2.863 0 4.085 2.489 5.001 4.86 5.272-0.305 0.267-0.581 0.736-0.677 1.427-0.609 0.272-2.152 0.743-3.104-0.888 0 0-0.564-1.024-1.636-1.1 0 0-1.040-0.013-0.073 0.649 0 0 0.7 0.328 1.185 1.56 0 0 0.617 1.904 3.584 1.259v1.985c0 0.281-0.172 0.612-0.704 0.513-4.24-1.409-7.296-5.408-7.296-10.12 0-5.892 4.776-10.667 10.667-10.667s10.667 4.775 10.667 10.667c0 4.711-3.052 8.708-7.288 10.12z"></path>
</symbol>
<symbol id="icon-github-4" viewBox="0 0 32 32">
<path d="M16 0c-8.836 0-16 7.164-16 16s7.164 16 16 16 16-7.164 16-16-7.164-16-16-16zM18.957 24.821c-0.472 0.092-0.624-0.199-0.624-0.448v-2.561c0-0.871-0.305-1.439-0.641-1.728 2.080-0.231 4.264-1.020 4.264-4.605 0-1.020-0.364-1.852-0.961-2.505 0.096-0.236 0.416-1.185-0.092-2.471 0 0-0.783-0.251-2.564 0.956-0.748-0.205-1.545-0.308-2.339-0.312-0.793 0.004-1.591 0.107-2.337 0.313-1.783-1.207-2.567-0.956-2.567-0.956-0.505 1.285-0.187 2.235-0.089 2.469-0.597 0.653-0.963 1.485-0.963 2.505 0 3.576 2.179 4.376 4.252 4.612-0.267 0.233-0.508 0.644-0.592 1.248-0.533 0.239-1.884 0.651-2.716-0.776 0 0-0.493-0.896-1.431-0.963 0 0-0.911-0.012-0.064 0.568 0 0 0.613 0.287 1.036 1.365 0 0 0.54 1.667 3.137 1.101v1.737c0 0.247-0.151 0.536-0.616 0.449-3.709-1.233-6.384-4.732-6.384-8.855 0-5.156 4.18-9.333 9.333-9.333s9.333 4.177 9.333 9.333c0 4.121-2.671 7.62-6.376 8.855z"></path>
</symbol>
<symbol id="icon-linkedin-2" viewBox="0 0 32 32">
<path d="M0 0v32h32v-32h-32zM10.667 25.333h-4v-14.667h4v14.667zM8.667 8.976c-1.288 0-2.333-1.053-2.333-2.352s1.045-2.352 2.333-2.352 2.333 1.053 2.333 2.352-1.044 2.352-2.333 2.352zM26.667 25.333h-4v-7.472c0-4.491-5.333-4.151-5.333 0v7.472h-4v-14.667h4v2.353c1.863-3.448 9.333-3.703 9.333 3.301v9.012z"></path>
</symbol>
<symbol id="icon-location" viewBox="0 0 32 32">
<path d="M15.999 0c-6.123 0-11.105 4.982-11.105 11.105 0 5.894 10.075 19.665 10.504 20.248l0.4 0.545c0.047 0.064 0.121 0.101 0.2 0.101 0.080 0 0.154-0.037 0.201-0.102l0.4-0.545c0.429-0.583 10.504-14.354 10.504-20.248 0-6.123-4.982-11.105-11.105-11.105zM15.999 7.127c2.194 0 3.978 1.784 3.978 3.978 0 2.193-1.784 3.978-3.978 3.978-2.193 0-3.978-1.785-3.978-3.978 0-2.194 1.785-3.978 3.978-3.978z"></path>
</symbol>
</defs>
</svg>
